HIERARCHY
ROOT Hips
{
	OFFSET 0.00000 0.00000 0.00000
	CHANNELS 6 Xposition Yposition Zposition Zrotation Yrotation Xrotation 
	JOINT LHipJoint
	{
		OFFSET 0 0 0
		CHANNELS 3 Zrotation Yrotation Xrotation
		JOINT LeftHip
		{
			OFFSET 1.33213 -1.58186 0.78596
			CHANNELS 3 Zrotation Yrotation Xrotation
			JOINT LeftKnee
			{
				OFFSET 2.29717 -6.31144 0.00000
				CHANNELS 3 Zrotation Yrotation Xrotation
				JOINT LeftAnkle
				{
					OFFSET 2.38430 -6.55082 0.00000
					CHANNELS 3 Zrotation Yrotation Xrotation
					JOINT LeftToe
					{
						OFFSET 0.11863 -0.32594 1.77568
						CHANNELS 3 Zrotation Yrotation Xrotation
						End Site
						{
							OFFSET 0.00000 -0.00000 0.91633
						}
					}
				}
			}
		}
	}
	JOINT RHipJoint
	{
		OFFSET 0 0 0
		CHANNELS 3 Zrotation Yrotation Xrotation
		JOINT RightHip
		{
			OFFSET -1.41575 -1.58186 0.78596
			CHANNELS 3 Zrotation Yrotation Xrotation
			JOINT RightKnee
			{
				OFFSET -2.42012 -6.64922 0.00000
				CHANNELS 3 Zrotation Yrotation Xrotation
				JOINT RightAnkle
				{
					OFFSET -2.47254 -6.79327 0.00000
					CHANNELS 3 Zrotation Yrotation Xrotation
					JOINT RightToe
					{
						OFFSET -0.15219 -0.41813 1.93430
						CHANNELS 3 Zrotation Yrotation Xrotation
						End Site
						{
							OFFSET -0.00000 -0.00000 0.99984
						}
					}
				}
			}
		}
	}
	JOINT lowerback
	{
		OFFSET 0 0 0
		CHANNELS 3 Zrotation Yrotation Xrotation
		JOINT Chest
		{
			OFFSET -0.04717 2.09389 -0.14516
			CHANNELS 3 Zrotation Yrotation Xrotation
			JOINT Chest2
			{
				OFFSET 0.02825 2.09433 -0.11325
				CHANNELS 3 Zrotation Yrotation Xrotation
				JOINT lowerneck
				{
					OFFSET 0 0 0
					CHANNELS 3 Zrotation Yrotation Xrotation
					JOINT Neck
					{
						OFFSET -0.01210 1.39029 0.12448
						CHANNELS 3 Zrotation Yrotation Xrotation
						JOINT Head
						{
							OFFSET 0.09492 1.38365 0.14559
							CHANNELS 3 Zrotation Yrotation Xrotation
							End Site
							{
								OFFSET 0.03402 1.40343 0.03708
							}
						}
					}
				}
				JOINT LeftCollar
				{
					OFFSET 0 0 0
					CHANNELS 3 Zrotation Yrotation Xrotation
					JOINT LeftShoulder
					{
						OFFSET 2.83352 1.10671 -0.20481
CHANNELS 3 Zrotation Xrotation Yrotation
						JOINT LeftElbow
						{
OFFSET 0 -4.771950 -0.000000
CHANNELS 3 Zrotation Xrotation Yrotation
							JOINT LeftWrist
							{
OFFSET 0 -2.984440 0.000000
CHANNELS 3 Zrotation Xrotation Yrotation
								JOINT lhand
								{
									OFFSET 0 0 0
CHANNELS 3 Zrotation Xrotation Yrotation
									JOINT LFingers
									{
OFFSET 0 -0.992280 0.000000
CHANNELS 3 Zrotation Xrotation Yrotation
										End Site
										{
OFFSET 0 -0.800010 0.000000
										}
									}
								}
								JOINT LThumb
								{
OFFSET 0 0.000000 0.000000
CHANNELS 3 Zrotation Xrotation Yrotation
									End Site
									{
OFFSET 0 -0.812220 0.812220
									}
								}
							}
						}
					}
				}
				JOINT RightCollar
				{
					OFFSET 0 0 0
					CHANNELS 3 Zrotation Yrotation Xrotation
					JOINT RightShoulder
					{
						OFFSET -3.23760 1.11106 0.06723
CHANNELS 3 Zrotation Xrotation Yrotation
						JOINT RightElbow
						{
OFFSET 0 -4.620520 0.000000
CHANNELS 3 Zrotation Xrotation Yrotation
							JOINT RightWrist
							{
OFFSET 0 -2.953320 0.000000
CHANNELS 3 Zrotation Xrotation Yrotation
								JOINT rhand
								{
									OFFSET 0 0 0
CHANNELS 3 Zrotation Xrotation Yrotation
									JOINT RFingers
									{
OFFSET 0 -0.990960 0.000000
CHANNELS 3 Zrotation Xrotation Yrotation
										End Site
										{
OFFSET 0 -0.798930 0.000000
										}
									}
								}
								JOINT RThumb
								{
OFFSET 0 0.000000 0.000000
CHANNELS 3 Zrotation Xrotation Yrotation
									End Site
									{
OFFSET 0 -0.811130 0.811130
									}
								}
							}
						}
					}
				}
			}
		}
	}
}
MOTION
Frames: 5
Frame Time: 0.008333333333333333
-2.969000 15.923500 47.997600 -177.383000 -8.372900 -172.768000 0.000000 0.000000 0.000000 -19.372200 -1.844100 6.804100 0.000000 -0.000000 -0.000000 -0.063200 -5.526500 -1.471400 0.725400 5.442200 15.174100 0.000000 0.000000 0.000000 18.204800 6.450100 -30.082000 -2.264900 -9.397400 27.046500 0.237800 12.839100 -5.479700 -0.059500 -1.573500 4.328500 -3.598400 -0.997800 -9.510300 2.350900 -1.093200 0.976100 4.345000 -0.725100 6.491700 -6.720400 -5.340000 3.427700 8.945700 -7.162400 -5.833400 4.333400 -3.731500 -1.887200 0.000000 -0.000000 0.000000 -3.546800 -0.334300 -0.595300 8.215800 -13.902000 1.003300 7.023800 38.178500 -9.146200 0.000000 0.000000 0.000000 -7.125000 0.000000 0.000000 -17.082300 38.638700 -2.772800 0.000000 -0.000000 0.000000 0.642800 4.439800 1.984600 -13.669100 -22.259800 -2.701500 -7.451500 35.552700 6.886600 0.000000 0.000000 0.000000 7.125000 0.000000 -0.000000 16.194900 36.488100 3.503900
-2.995884 15.926852 47.979729 -177.942182 -9.020148 -172.204481 0.000000 0.000000 0.000000 -19.997780 -2.690905 6.519289 0.000000 0.000000 0.000000 -0.054164 -5.747833 -2.160268 0.711567 5.390545 15.026007 0.000000 0.000000 0.000000 17.426026 5.965035 -30.766004 -2.316953 -9.497108 27.363280 0.262368 13.246461 -5.502084 -0.078435 -1.803257 4.962381 -3.862681 -1.532583 -9.924410 2.253596 -1.753635 0.956552 4.284157 -1.061891 6.781358 -6.934214 -5.140184 3.341339 9.278939 -6.866655 -6.855560 4.348500 -3.612737 -2.128977 0.000000 0.000000 0.000000 -3.486669 -0.730956 -4.794860 9.059387 -15.254315 1.216347 7.549213 35.354029 -8.553575 0.000000 0.000000 0.000000 -7.125000 0.000000 0.000000 -16.499289 38.105870 -2.895772 0.000000 0.000000 0.000000 0.496465 4.159575 0.087904 -13.224025 -21.614478 -2.535301 -7.958085 37.219075 4.188904 0.000000 0.000000 0.000000 7.125000 0.000000 0.000000 15.239118 33.895267 4.276989
-3.024502 15.932435 47.957781 -178.454723 -9.759829 -171.662100 0.000000 0.000000 0.000000 -20.558631 -3.617890 6.291882 0.000000 0.000000 0.000000 -0.039923 -6.092265 -3.049072 0.808998 5.738216 16.027290 0.000000 0.000000 0.000000 16.785477 5.205740 -31.491047 -2.362736 -9.583941 27.639750 0.259599 13.420022 -5.735443 -0.020505 -0.783947 2.155457 -3.825612 -1.875514 -10.194303 1.868040 -2.188731 0.445522 3.781845 -1.251603 6.418341 -6.605479 -5.057005 4.742189 9.644426 -6.738238 -7.773886 4.201206 -3.618277 -2.506363 0.000000 0.000000 0.000000 -2.874090 -0.250495 -8.223547 9.784346 -16.400596 1.414240 8.762540 33.283618 -6.270648 0.000000 0.000000 0.000000 -7.125000 0.000000 0.000000 -15.007683 35.962244 -3.411099 0.000000 0.000000 0.000000 1.014398 5.172580 -0.814046 -13.132085 -21.480418 -2.501468 -8.165231 37.609534 4.286591 0.000000 0.000000 0.000000 7.125000 0.000000 0.000000 15.091057 34.000212 4.194945
-3.036316 15.924089 47.956529 -178.357861 -10.547725 -171.742798 0.000000 0.000000 0.000000 -20.401488 -4.357930 6.500916 0.000000 0.000000 0.000000 -0.018098 -6.457106 -4.036877 0.929069 6.140292 17.192134 0.000000 0.000000 0.000000 16.830664 4.840381 -31.458270 -2.379479 -9.615386 27.739974 0.209511 13.011998 -6.133655 -0.001616 -0.214601 0.589760 -3.405223 -2.246447 -9.581316 1.790320 -2.745110 0.351243 3.390087 -1.499770 6.000268 -6.567640 -4.998706 4.492942 9.850866 -6.646186 -7.906253 4.251586 -3.585786 -2.505376 0.000000 0.000000 0.000000 -2.214220 -3.595228 -3.630979 7.481675 -12.686466 0.857404 11.034955 38.377596 -4.371540 0.000000 0.000000 0.000000 -7.125000 0.000000 0.000000 -12.804237 34.208267 -3.456272 0.000000 0.000000 0.000000 1.261090 5.262409 -1.364401 -12.908485 -21.152812 -2.420283 -7.433740 37.589480 7.120688 0.000000 0.000000 0.000000 7.125000 0.000000 0.000000 16.261393 36.713358 3.426286
-3.036324 15.920425 47.966814 -177.947554 -10.330377 -171.240720 0.000000 0.000000 0.000000 -19.895114 -4.583128 5.172476 0.008099 0.420643 1.156114 -0.013891 -6.827892 -4.422273 0.909719 6.077375 17.009215 0.000000 0.000000 0.000000 17.215267 5.331908 -32.030493 -2.364548 -9.587290 27.650338 0.202958 12.817499 -6.045603 -0.002642 0.298772 -0.820857 -2.850741 -2.243477 -9.717604 1.823834 -2.804913 0.404340 3.097904 -1.515543 6.112675 -6.633489 -4.962498 3.320863 10.204380 -6.564895 -7.977792 4.331612 -3.552387 -2.323717 0.000000 0.000000 0.000000 -2.142863 -2.040988 -11.364551 10.851326 -18.059546 1.729917 9.202926 29.799820 -5.086689 0.000000 0.000000 0.000000 -7.125000 0.000000 0.000000 -14.406922 34.831160 -3.693767 0.000000 0.000000 0.000000 1.439748 4.683084 -2.350754 -12.498611 -20.547792 -2.274576 -7.472714 38.340637 7.098568 0.000000 0.000000 0.000000 7.125000 0.000000 0.000000 16.224550 36.694436 3.425839
